<svg id="outline" height="512" viewBox="0 0 512 512" width="512" xmlns="http://www.w3.org/2000/svg"><path d="m224.9082 33.60352-13.4375 22.39648h-123.4707a24.02718 24.02718 0 0 0 -24 24v392a24.02718 24.02718 0 0 0 24 24h336a24.02718 24.02718 0 0 0 24-24v-392a24.02718 24.02718 0 0 0 -24-24h-123.4707l-13.4375-22.396a36.25908 36.25908 0 0 0 -62.1836-.00048zm199.0918 38.39648a8.00917 8.00917 0 0 1 8 8v392a8.00917 8.00917 0 0 1 -8 8h-336a8.00917 8.00917 0 0 1 -8-8v-392a8.00917 8.00917 0 0 1 8-8h113.87061l-9.59961 16h-88.271a8.00008 8.00008 0 0 0 -8 8v360a8.00008 8.00008 0 0 0 8 8h304a8.00008 8.00008 0 0 0 8-8v-360a8.00008 8.00008 0 0 0 -8-8h-88.27051l-9.6001-16zm-213.206 64h90.4121a26.76656 26.76656 0 0 0 26.27735-32h72.51655v344h-288v-344h72.5166a26.76656 26.76656 0 0 0 26.2774 32zm45.206-104a20.35893 20.35893 0 0 1 17.37109 9.83545l37.09082 61.81738a10.79394 10.79394 0 0 1 -9.25586 16.34717h-90.41205a10.79306 10.79306 0 0 1 -9.25489-16.34766l37.08985-61.81689a20.35893 20.35893 0 0 1 17.37104-9.83545z"/><path d="m248 48h16v32h-16z"/><circle cx="256" cy="96" r="8"/><path d="m218.34277 338.34326-56 56 11.31446 11.31348 26.34277-26.34274v36.686h-48v-48h24v-16h-32a8.00008 8.00008 0 0 0 -8 8v64a8.00008 8.00008 0 0 0 8 8h64a8.00008 8.00008 0 0 0 8-8v-60.686l13.65723-13.65722z"/><path d="m240 368h24v16h-24z"/><path d="m280 368h88v16h-88z"/><path d="m312 400h24v16h-24z"/><path d="m240 400h56v16h-56z"/><path d="m162.34277 298.34326 11.31446 11.31348 26.34277-26.34274v36.686h-48v-48h24v-16h-32a8.00008 8.00008 0 0 0 -8 8v64a8.00008 8.00008 0 0 0 8 8h64a8.00008 8.00008 0 0 0 8-8v-60.686l13.65723-13.65722-11.31446-11.31348z"/><path d="m240 272h24v16h-24z"/><path d="m280 272h88v16h-88z"/><path d="m312 304h24v16h-24z"/><path d="m240 304h56v16h-56z"/><path d="m173.65723 213.65674 26.34277-26.34274v36.686h-48v-48h24v-16h-32a8.00008 8.00008 0 0 0 -8 8v64a8.00008 8.00008 0 0 0 8 8h64a8.00008 8.00008 0 0 0 8-8v-60.686l13.65723-13.65722-11.31446-11.31348-56 56z"/><path d="m240 176h24v16h-24z"/><path d="m280 176h88v16h-88z"/><path d="m312 208h24v16h-24z"/><path d="m240 208h56v16h-56z"/></svg>