<?xml version="1.0" encoding="iso-8859-1"?>
<!-- Generator: Adobe Illustrator 19.0.0, SVG Export Plug-In . SVG Version: 6.00 Build 0)  -->
<svg version="1.1" id="Capa_1" xmlns="http://www.w3.org/2000/svg" xmlns:xlink="http://www.w3.org/1999/xlink" x="0px" y="0px"
	 viewBox="0 0 512 512" style="enable-background:new 0 0 512 512;" xml:space="preserve">
<path style="fill:#FFFFFF;" d="M216,286c-11.05,0-20-8.96-20-20v-31.34c0-6.55-3.24-12.67-8.66-16.33l-11.83-0.01
	c-6.479,2.174-12.224,2.312-19.09-0.03H156v-0.13c-11.62-4.13-20-15.12-20-28.16c0-8.83,3.89-16.69,9.96-22.18
	C139.58,153.16,136,127.01,136,110c0-66.27,53.73-100,120-100s120,33.73,120,100c0,17.01-3.58,43.16-9.96,57.82
	c6.07,5.49,9.96,13.35,9.96,22.18c0,13.34-8.76,24.51-20.79,28.41l0.06,0.13h-0.48c-6.379,1.959-11.305,1.938-17.65-0.02l-12.7-0.02
	c-5.25,3.35-8.44,9.14-8.44,15.37V266c0,11.04-8.95,20-20,20C271.039,286,239.447,286,216,286z"/>
<path style="fill:#514E73;" d="M336,143.25v4.5c0,15.86-15.54,27.07-30.6,22.05l-13.51-4.5c-9.49-3.17-15.89-12.05-15.89-22.05
	c0-12.841,10.41-23.25,23.25-23.25h13.5C325.59,120,336,130.41,336,143.25z"/>
<path style="fill:#FFFFFF;" d="M398.1,421.14L306.77,382l91.33-39.14C402.46,354.04,413.27,362,426,362c16.57,0,30-13.43,30-30
	c0-13.85-9.44-25.39-22.19-28.85c1.38-3.45,2.19-7.2,2.19-11.15c0-16.57-13.43-30-30-30s-30,13.43-30,30
	c0,5.53,1.82,10.49,4.44,14.91L256,360.24l-124.44-53.33C144.07,285.76,128,262,106,262c-16.57,0-30,13.43-30,30
	c0,3.95,0.81,7.7,2.19,11.15C65.44,306.61,56,318.15,56,332c0,33.04,45.92,41.6,57.9,10.86L205.23,382l-91.33,39.14
	C109.54,409.96,98.73,402,86,402c-16.57,0-30,13.43-30,30c0,13.85,9.44,25.39,22.19,28.85C76.81,464.3,76,468.05,76,472
	c0,16.57,13.43,30,30,30s30-13.43,30-30c0-5.53-1.82-10.49-4.44-14.91L256,403.76l124.44,53.33C367.93,478.24,384,502,406,502
	c16.57,0,30-13.43,30-30c0-3.95-0.81-7.7-2.19-11.15c12.75-3.46,22.19-15,22.19-28.85C456,398.96,410.08,390.4,398.1,421.14z"/>
<path style="fill:#514E73;" d="M236,143.25c0,9.919-6.34,18.873-15.89,22.05l-13.51,4.5c-15.06,5.02-30.6-6.19-30.6-22.05v-4.5
	c0-12.84,10.41-23.25,23.25-23.25h13.5C225.59,120,236,130.41,236,143.25z"/>
<path d="M276,210c5.52,0,10-4.48,10-10s-4.48-10-10-10s-10,4.48-10,10S270.48,210,276,210z"/>
<path d="M236,190c-5.52,0-10,4.48-10,10s4.48,10,10,10s10-4.48,10-10S241.52,190,236,190z"/>
<path d="M199.14,181.029c8.254,0,12.654-2.762,24.126-6.24C236.875,170.262,246,157.535,246,143.25
	c0-18.334-14.916-33.25-33.25-33.25h-13.5c-18.334,0-33.25,14.916-33.25,33.25v4.5C166,167.039,181.851,181.029,199.14,181.029z
	 M186,143.25c0-7.306,5.944-13.25,13.25-13.25h13.5c7.306,0,13.25,5.944,13.25,13.25c0,5.591-3.557,10.736-9.046,12.561
	c-0.001,0.001-0.003,0.001-0.004,0.002l-13.512,4.501c-8.605,2.867-17.437-3.53-17.437-12.563v-4.501H186z"/>
<path d="M288.73,174.787l13.508,4.499C323.734,186.454,346,170.518,346,147.75v-4.5c0-18.334-14.916-33.25-33.25-33.25h-13.5
	c-18.376,0-33.25,14.87-33.25,33.25C266,157.572,275.131,170.245,288.73,174.787z M299.25,130h13.5c7.306,0,13.25,5.944,13.25,13.25
	v4.5c0,9.053-8.849,15.425-17.437,12.563c-0.001-0.001-0.002-0.001-0.003-0.001l-13.503-4.497
	c-5.417-1.811-9.058-6.859-9.058-12.565C286,135.926,291.926,130,299.25,130z"/>
<path d="M426,372c22.056,0,40-17.944,40-40c0-14.571-8.021-27.751-20.358-34.721C448.878,273.508,430.249,252,406,252
	c-26.769,0-45.317,25.777-38.658,49.645l-111.341,47.716l-111.438-47.757C151.335,276.382,131.828,252,106,252
	c-24.272,0-42.881,21.537-39.641,45.279c-31.36,17.71-25.883,66.727,12.223,73.891c13.624,2.563,29.962-1.563,39.771-15.521
	L179.842,382l-61.589,26.395C110.861,398.2,99.037,392,86,392c-22.056,0-40,17.944-40,40c0,14.572,8.019,27.752,20.359,34.721
	C63.116,490.488,81.751,512,106,512c26.351,0,45.43-25.361,38.659-49.645l111.34-47.716l111.438,47.757
	C360.669,487.596,380.152,512,406,512c24.283,0,42.875-21.535,39.642-45.279c31.34-17.704,25.907-66.722-12.223-73.891
	c-13.623-2.563-29.964,1.563-39.771,15.521L332.158,382l61.589-26.395C401.139,365.799,412.963,372,426,372z M117.839,333.669
	c-5.177-2.221-11.2,0.281-13.256,5.561c-4.417,11.332-14.777,13.699-22.306,12.285c-21.492-4.042-21.414-33.3-1.467-38.713
	c5.765-1.565,8.886-7.812,6.666-13.365C82.109,286.027,92.11,272,106,272c14.414,0,25.444,15.462,16.953,29.819
	c-3.077,5.203-0.864,11.912,4.668,14.282l102.993,44.139l-25.386,10.879L117.839,333.669z M127.621,447.898
	c-5.539,2.374-7.745,9.09-4.663,14.291C131.5,476.6,120.295,492,106,492c-13.867,0-23.901-14.004-18.525-27.437
	c2.218-5.548-0.896-11.799-6.666-13.365C72.09,448.833,66,440.938,66,432c0-11.028,8.972-20,20-20
	c8.263,0,15.557,5.014,18.583,12.772c2.052,5.263,8.059,7.786,13.255,5.559L384.38,316.102c5.539-2.374,7.745-9.09,4.663-14.291
	C380.498,287.402,391.704,272,406,272c13.893,0,23.892,14.029,18.525,27.435c-2.22,5.546,0.894,11.8,6.665,13.367
	C439.91,315.168,446,323.063,446,332c0,11.028-8.972,20-20,20c-8.263,0-15.558-5.014-18.584-12.773
	c-2.051-5.261-8.057-7.784-13.256-5.558l-91.33,39.14L127.621,447.898z M394.16,430.331c5.178,2.221,11.198-0.28,13.257-5.56
	c4.416-11.332,14.774-13.701,22.307-12.286c21.492,4.042,21.415,33.3,1.467,38.713c-2.754,0.748-5.057,2.636-6.33,5.189
	c-1.273,2.553-1.395,5.528-0.335,8.178C429.882,477.946,419.92,492,406,492c-14.415,0-25.445-15.462-16.952-29.819
	c3.078-5.205,0.861-11.913-4.668-14.282L281.386,403.76l25.385-10.879L394.16,430.331z"/>
<path d="M177.044,228.321l6.619,0.006c1.491,1.736,2.337,3.974,2.337,6.333V266c0,16.542,13.458,30,30,30h80
	c16.542,0,30-13.458,30-30v-32.13c0-2.003,0.72-3.892,1.994-5.364l7.712,0.012C360.851,235.434,386,216.177,386,190
	c0-8.839-3.013-17.425-8.427-24.396C383.065,149.238,386,125.81,386,110C386,38.045,327.919,0,256,0c-71.979,0-130,38.097-130,110
	c0,15.81,2.936,39.238,8.427,55.604C129.013,172.575,126,181.162,126,190C126,216.409,151.752,235.827,177.044,228.321z
	 M155.129,163.83C149.415,150.699,146,126.148,146,110c0-66.357,56.823-90,110-90c53.178,0,110,23.643,110,90
	c0,16.148-3.415,40.699-9.129,53.83c-1.714,3.937-0.723,8.527,2.462,11.407C363.632,179.125,366,184.368,366,190
	c0,13.357-13.099,22.918-25.912,18.964c-0.95-0.293-1.938-0.442-2.933-0.444c-10.986,0.35-14.105-0.992-18.094,1.55
	c-8.178,5.218-13.061,14.116-13.061,23.8V266c0,5.514-4.486,10-10,10h-10v-36c0-5.522-4.478-10-10-10s-10,4.478-10,10v36h-20v-36
	c0-5.522-4.478-10-10-10c-5.523,0-10,4.478-10,10v36h-10c-5.514,0-10-4.486-10-10v-31.34c0-15.288-11.736-26.323-18.652-26.33
	c-0.143,0-11.939-0.01-11.838-0.01c-4.119,0-7.312,3.425-15.861,0.505c-0.148-0.05-0.296-0.097-0.446-0.14
	C151.299,205.808,146,198.318,146,190c0-5.632,2.368-10.875,6.667-14.763C155.852,172.357,156.842,167.767,155.129,163.83z"/>
<g>
</g>
<g>
</g>
<g>
</g>
<g>
</g>
<g>
</g>
<g>
</g>
<g>
</g>
<g>
</g>
<g>
</g>
<g>
</g>
<g>
</g>
<g>
</g>
<g>
</g>
<g>
</g>
<g>
</g>
</svg>
