<?xml version="1.0" encoding="iso-8859-1"?>
<!-- Generator: Adobe Illustrator 19.0.0, SVG Export Plug-In . SVG Version: 6.00 Build 0)  -->
<svg version="1.1" id="Capa_1" xmlns="http://www.w3.org/2000/svg" xmlns:xlink="http://www.w3.org/1999/xlink" x="0px" y="0px"
	 viewBox="0 0 512 512" style="enable-background:new 0 0 512 512;" xml:space="preserve">
<rect x="140.241" y="59.181" transform="matrix(0.7071 0.7071 -0.7071 0.7071 245.5937 -131.1621)" style="fill:#FFECB3;" width="281.765" height="343.391"/>
<rect x="81.093" y="254.81" transform="matrix(0.7071 0.7071 -0.7071 0.7071 270.0971 -72.0129)" style="fill:#4DB6AC;" width="281.765" height="70.439"/>
<path style="fill:#FFFDE7;" d="M60.098,252.665l199.237,199.237l-37.357,37.357c-17.193,17.193-45.069,17.193-62.261,0
	L22.741,352.283c-17.193-17.193-17.193-45.069,0-62.261L60.098,252.665z"/>
<path d="M412.779,498.383c-0.246-0.592-0.542-1.162-0.906-1.694c-0.353-0.543-0.767-1.045-1.221-1.498
	c-0.453-0.453-0.955-0.866-1.497-1.231c-0.532-0.354-1.103-0.65-1.703-0.896c-0.591-0.246-1.21-0.443-1.84-0.571
	c-1.27-0.256-2.58-0.256-3.84,0c-0.63,0.128-1.25,0.325-1.851,0.571c-0.592,0.246-1.162,0.542-1.694,0.896
	c-0.543,0.364-1.045,0.778-1.498,1.231s-0.866,0.955-1.221,1.498c-0.364,0.532-0.66,1.102-0.906,1.694
	c-0.246,0.601-0.443,1.221-0.571,1.851c-0.128,0.63-0.186,1.279-0.186,1.92c0,0.639,0.059,1.29,0.186,1.92
	c0.128,0.63,0.325,1.25,0.571,1.84c0.246,0.601,0.542,1.172,0.906,1.703c0.354,0.542,0.768,1.044,1.221,1.497
	c0.453,0.454,0.955,0.867,1.498,1.221c0.532,0.354,1.102,0.66,1.694,0.906c0.601,0.246,1.221,0.443,1.851,0.561
	c0.63,0.128,1.28,0.197,1.92,0.197c0.639,0,1.29-0.069,1.92-0.197c0.63-0.118,1.25-0.315,1.84-0.561
	c0.601-0.246,1.172-0.551,1.703-0.906c0.542-0.353,1.044-0.767,1.497-1.221c1.832-1.83,2.886-4.371,2.886-6.96
	c0-0.64-0.06-1.291-0.187-1.92S413.025,498.983,412.779,498.383z"/>
<path d="M509.116,202.12L309.88,2.884c-3.846-3.844-10.078-3.844-13.925,0L140.301,158.538l-49.809,49.809l-37.356,37.356
	l-37.356,37.356C5.603,293.234,0,306.764,0,321.153c0,14.39,5.603,27.918,15.778,38.093L152.753,496.22
	C162.929,506.395,176.457,512,190.847,512h183.307c5.437,0,9.846-4.409,9.846-9.846s-4.409-9.846-9.846-9.846h-141.3l33.443-33.443
	l37.356-37.356l49.809-49.809l155.654-155.654C512.962,212.2,512.962,205.965,509.116,202.12z M97.455,229.233l185.311,185.312
	l-23.432,23.432L74.023,252.665L97.455,229.233z M215.015,482.296c-6.456,6.456-15.038,10.012-24.168,10.012
	c-9.13,0-17.713-3.555-24.168-10.012L29.704,345.321c-6.456-6.455-10.012-15.039-10.012-24.168c0-9.129,3.555-17.712,10.012-24.168
	l30.394-30.394l185.312,185.311L215.015,482.296z M296.691,400.62L111.38,215.309l35.883-35.883l185.312,185.312L296.691,400.62z
	 M371.405,325.906l-30.394-30.394c-3.846-3.844-10.079-3.844-13.925,0c-3.845,3.845-3.845,10.08,0,13.925l30.394,30.394
	L346.5,350.811L161.188,165.5L302.917,23.77l185.311,185.312L371.405,325.906z"/>
<path d="M301.71,270.281c-3.845,3.845-3.845,10.079,0,13.925c1.923,1.922,4.443,2.884,6.962,2.884s5.039-0.962,6.962-2.884
	l0.072-0.072c3.845-3.845,3.845-10.079,0-13.925c-3.846-3.844-10.078-3.844-13.925,0L301.71,270.281z"/>
<g>
</g>
<g>
</g>
<g>
</g>
<g>
</g>
<g>
</g>
<g>
</g>
<g>
</g>
<g>
</g>
<g>
</g>
<g>
</g>
<g>
</g>
<g>
</g>
<g>
</g>
<g>
</g>
<g>
</g>
</svg>
