<svg id="Layer_5" enable-background="new 0 0 64 64" height="512" viewBox="0 0 64 64" width="512" xmlns="http://www.w3.org/2000/svg" xmlns:xlink="http://www.w3.org/1999/xlink"><linearGradient id="SVGID_1_" gradientUnits="userSpaceOnUse" x1="32" x2="32" y1="63" y2="1"><stop offset="0" stop-color="#9f2fff"/><stop offset="1" stop-color="#0bb1d3"/></linearGradient><path d="m1 63h62v-62h-62zm2-51h4v4h-4zm0 6h4v4h-4zm0 6h4v4h-4zm0 6h4v4h-4zm0 6h4v4h-4zm0 6h4v4h-4zm0 6h4v4h-4zm5.414 9h1.586v4h-5.586zm46.586-48v46h-46v-46zm-43 48h4v4h-4zm6 0h4v4h-4zm6 0h4v4h-4zm6 0h4v4h-4zm6 0h4v4h-4zm6 0h4v4h-4zm6 0h4v4h-4zm6 0h1.586l4 4h-5.586zm7-5h-4v-4h4zm0-6h-4v-4h4zm0-6h-4v-4h4zm0-6h-4v-4h4zm0-6h-4v-4h4zm0-6h-4v-4h4zm0-6h-4v-4h4zm-4 39.586v-1.586h4v5.586zm4-45.586h-4v-1.586l4-4zm-5.414-3h-1.586v-4h5.586zm-3.586 0h-4v-4h4zm-6 0h-4v-4h4zm-6 0h-4v-4h4zm-6 0h-4v-4h4zm-6 0h-4v-4h4zm-6 0h-4v-4h4zm-6 0h-4v-4h4zm-6 0h-1.586l-4-4h5.586zm-3 1.414v1.586h-4v-5.586zm-4 45.586h4v1.586l-4 4zm10-1h38c1.103 0 2-.897 2-2v-38c0-1.103-.897-2-2-2h-38c-1.103 0-2 .897-2 2v38c0 1.103.897 2 2 2zm0-40h38l.001 38h-38.001zm16 24h6c1.103 0 2-.897 2-2v-6c0-1.103-.897-2-2-2h-6c-1.103 0-2 .897-2 2v6c0 1.103.897 2 2 2zm0-8h6l.001 6h-6.001zm12 10h4v-2h-4v-2h4v-2h-4v-2h4v-2h-4v-2h4v-2h-4v-2h-2v-4h-2v4h-2v-4h-2v4h-2v-4h-2v4h-2v-4h-2v4h-2v2h-4v2h4v2h-4v2h4v2h-4v2h4v2h-4v2h4v2h2v4h2v-4h2v4h2v-4h2v4h2v-4h2v4h2v-4h2zm-2 0h-14v-14h14zm-21-18c1.654 0 3-1.346 3-3s-1.346-3-3-3-3 1.346-3 3 1.346 3 3 3zm0-4c.551 0 1 .448 1 1s-.449 1-1 1-1-.448-1-1 .449-1 1-1zm0 26c-1.654 0-3 1.346-3 3s1.346 3 3 3 3-1.346 3-3-1.346-3-3-3zm0 4c-.551 0-1-.448-1-1s.449-1 1-1 1 .448 1 1-.449 1-1 1zm28-32c-1.654 0-3 1.346-3 3s1.346 3 3 3 3-1.346 3-3-1.346-3-3-3zm0 4c-.551 0-1-.448-1-1s.449-1 1-1 1 .448 1 1-.449 1-1 1zm0 24c-1.654 0-3 1.346-3 3s1.346 3 3 3 3-1.346 3-3-1.346-3-3-3zm0 4c-.551 0-1-.448-1-1s.449-1 1-1 1 .448 1 1-.449 1-1 1zm-15-16h2v2h-2z" fill="url(#SVGID_1_)"/></svg>