<svg id="Layer_5" enable-background="new 0 0 64 64" height="512" viewBox="0 0 64 64" width="512" xmlns="http://www.w3.org/2000/svg" xmlns:xlink="http://www.w3.org/1999/xlink"><linearGradient id="SVGID_1_" gradientUnits="userSpaceOnUse" x1="32" x2="32" y1="63" y2="1"><stop offset="0" stop-color="#9f2fff"/><stop offset="1" stop-color="#0bb1d3"/></linearGradient><path d="m21 29c-7.72 0-14 6.28-14 14s6.28 14 14 14 14-6.28 14-14-6.28-14-14-14zm0 26c-6.617 0-12-5.383-12-12s5.383-12 12-12 12 5.383 12 12-5.383 12-12 12zm4.781-17.625 4.5 5.625-4.5 5.625-1.562-1.25 3.5-4.375-3.5-4.375zm-8 1.25-3.5 4.375 3.5 4.375-1.562 1.25-4.5-5.625 4.5-5.625zm3.229-2.767 1.979.283-2 14-1.979-.283zm36.99-34.858h-34c-2.757 0-5 2.243-5 5v17h-1.721l-.869 2.606c-1.561.411-3.057 1.032-4.46 1.852l-2.461-1.231-5.262 5.263 1.23 2.461c-.819 1.403-1.44 2.899-1.851 4.46l-2.606.868v7.441l2.606.869c.411 1.561 1.032 3.057 1.851 4.46l-1.23 2.461 5.262 5.263 2.461-1.231c1.403.819 2.899 1.44 4.46 1.852l.869 2.606h7.441l.869-2.606c1.561-.411 3.057-1.032 4.46-1.852l2.461 1.231 5.262-5.263-1.23-2.461c.819-1.403 1.44-2.899 1.851-4.46l2.607-.868v-1.721h17c2.757 0 5-2.243 5-5v-34c0-2.757-2.243-5-5-5zm3 5v7h-5.044c-2.518-3.754-6.415-6.5-10.956-7.536v-2.464h13c1.654 0 3 1.346 3 3zm-20.838 33-1.769-.59c-.411-1.561-1.032-3.057-1.851-4.46l1.23-2.461-5.262-5.263-2.461 1.231c-1.403-.819-2.899-1.44-4.46-1.852l-.589-1.767v-.838c0-8.822 7.178-16 16-16 3.076 0 5.941.887 8.383 2.398l-5.805 7.095c-.817-.323-1.694-.493-2.578-.493-3.86 0-7 3.141-7 7s3.14 7 7 7 7-3.141 7-7c0-.884-.17-1.761-.493-2.577l7.095-5.805c1.511 2.441 2.398 5.306 2.398 8.382 0 8.822-7.178 16-16 16zm5.838-16c0 2.757-2.243 5-5 5s-5-2.243-5-5 2.243-5 5-5c.426 0 .849.056 1.258.162-.409.571-.727 1.195-.936 1.86-.107-.011-.214-.022-.322-.022-1.654 0-3 1.346-3 3s1.346 3 3 3 3-1.346 3-3c0-.108-.011-.215-.022-.322.665-.21 1.29-.527 1.86-.936.106.409.162.832.162 1.258zm-4 0c0 .552-.449 1-1 1s-1-.448-1-1 .449-1 1-1v1zm2.915-3.04c-.52.425-1.125.729-1.769.895.166-.644.47-1.25.895-1.77l6.984-8.536c.893.72 1.706 1.533 2.426 2.426zm-23.915-13.96c0-1.654 1.346-3 3-3h19v2.118c-.658-.073-1.323-.118-2-.118-9.925 0-18 8.075-18 18h-2zm18 39.279-2.294.765-.125.548c-.396 1.725-1.078 3.367-2.026 4.881l-.298.477 1.083 2.167-3.223 3.224-2.168-1.084-.476.298c-1.514.948-3.156 1.63-4.881 2.026l-.547.126-.766 2.293h-4.559l-.765-2.294-.547-.126c-1.725-.396-3.367-1.078-4.881-2.026l-.476-.298-2.167 1.084-3.223-3.224 1.083-2.167-.298-.477c-.949-1.514-1.63-3.156-2.026-4.881l-.125-.548-2.295-.764v-4.559l2.294-.765.125-.548c.396-1.725 1.078-3.367 2.026-4.881l.298-.477-1.083-2.167 3.223-3.224 2.168 1.084.476-.298c1.514-.948 3.156-1.63 4.881-2.026l.547-.126.766-2.292h4.559l.765 2.294.547.126c1.725.396 3.367 1.078 4.881 2.026l.476.298 2.168-1.084 3.223 3.224-1.083 2.167.298.477c.949 1.514 1.63 3.156 2.026 4.881l.125.548 2.294.764zm19-2.279h-17v-2c9.925 0 18-8.075 18-18 0-2.876-.695-5.586-1.899-8h3.899v25c0 1.654-1.346 3-3 3zm-1-32c1.654 0 3-1.346 3-3s-1.346-3-3-3-3 1.346-3 3 1.346 3 3 3zm0-4c.551 0 1 .448 1 1s-.449 1-1 1-1-.448-1-1 .449-1 1-1zm-34-1c0-.552.448-1 1-1s1 .448 1 1-.448 1-1 1-1-.448-1-1zm36 34c0 .552-.448 1-1 1s-1-.448-1-1 .448-1 1-1 1 .448 1 1zm-18-29c-6.617 0-12 5.383-12 12h-2c0-7.72 6.28-14 14-14z" fill="url(#SVGID_1_)"/></svg>