<svg id="Layer_35" enable-background="new 0 0 64 64" height="512" viewBox="0 0 64 64" width="512" xmlns="http://www.w3.org/2000/svg" xmlns:xlink="http://www.w3.org/1999/xlink"><linearGradient id="SVGID_1_" gradientUnits="userSpaceOnUse" x1="32" x2="32" y1="63" y2="1"><stop offset="0" stop-color="#9f2fff"/><stop offset="1" stop-color="#0bb1d3"/></linearGradient><path d="m58 1h-38c-2.757 0-5 2.243-5 5v7h-12v12h-2v26c0 6.617 5.383 12 12 12h45c2.757 0 5-2.243 5-5v-52c0-2.757-2.243-5-5-5zm-53 14h16v10h-16zm18 8h10v14h-8v-12h-2zm2 16h20v10h-20zm22 0h10v10h-10zm10-2h-22v-14h22zm0-16h-10v-14h10zm-12 0h-22v-8h-2v-6h24zm-22 6v4h-20v-4zm-20 24v-18h20v18c0 5.514-4.486 10-10 10s-10-4.486-10-10zm58 7c0 1.654-1.346 3-3 3h-38.381c3.239-2.151 5.381-5.828 5.381-10h32c1.103 0 2-.897 2-2v-42c0-1.103-.897-2-2-2h-36c-1.103 0-2 .897-2 2v6h-2v-7c0-1.654 1.346-3 3-3h38c1.654 0 3 1.346 3 3zm-16 1h14v-6h-14zm2-4h10v2h-10zm-17-2c-1.654 0-3 1.346-3 3s1.346 3 3 3 3-1.346 3-3-1.346-3-3-3zm0 4c-.551 0-1-.448-1-1s.449-1 1-1 1 .448 1 1-.449 1-1 1zm8-4c-1.654 0-3 1.346-3 3s1.346 3 3 3 3-1.346 3-3-1.346-3-3-3zm0 4c-.551 0-1-.448-1-1s.449-1 1-1 1 .448 1 1-.449 1-1 1zm-25-14c-4.411 0-8 3.589-8 8s3.589 8 8 8 8-3.589 8-8-3.589-8-8-8zm0 14c-3.309 0-6-2.691-6-6s2.691-6 6-6 6 2.691 6 6-2.691 6-6 6zm30-48h-18v10h18zm-2 8h-14v-6h14zm14-2h-2v-2h2zm0 4h-2v-2h2zm-6 0v-2h2v2zm2-4h-2v-2h2zm4-4h-2v-2h2zm-4 0h-2v-2h2zm-24 30v6h16v-6zm14 4h-12v-2h12zm12-4h2v2h-2zm-4 0h2v2h-2zm6-6v-10h-18v10zm-16-8h14v6h-14zm10 18h2v2h-2zm4 0h2v2h-2zm-22-18h-2v-2h2zm0 4h-2v-2h2zm0 4h-2v-2h2zm-24-18h4v2h-4zm12 0v2h-4v-2z" fill="url(#SVGID_1_)"/></svg>